<svg id="32a1cb49-8369-479b-976e-a950e7748d77" data-name="Layer 1" xmlns="http://www.w3.org/2000/svg" width="44.34" height="42.28" viewBox="0 0 44.34 42.28"><defs><style>.d78a65ea-6a41-4b51-b1af-324d4561118c{fill:none;stroke:#9c9d9e;stroke-linecap:round;stroke-linejoin:round;stroke-width:1.3px;}</style></defs><title>Untitled-2</title><path class="d78a65ea-6a41-4b51-b1af-324d4561118c" d="M28.7,31c6.21.75,13.08,2.29,13.08,4.08,0,2.51-8.47,4.55-18.91,4.55S4,37.63,4,35.12C4,33.36,11.24,31.8,17.31,31"/><polyline class="d78a65ea-6a41-4b51-b1af-324d4561118c" points="16.36 14.98 19.92 18.63 27.98 9.95"/><path class="d78a65ea-6a41-4b51-b1af-324d4561118c" d="M22.86,36.63l-1-1c-2.1-2-4.17-4.12-6.06-6.36A44.24,44.24,0,0,1,11,22.62a20.91,20.91,0,0,1-1.95-4.5,9.42,9.42,0,0,1-.35-3.26A14,14,0,0,1,15.5,3.39a13.12,13.12,0,0,1,5.21-1.91A14.22,14.22,0,0,1,35.39,8.85a14,14,0,0,1,1.55,5,10.78,10.78,0,0,1-.17,3.84,17.78,17.78,0,0,1-1.32,3.59,34.46,34.46,0,0,1-4.69,7.07A89.74,89.74,0,0,1,23,36.54.53.53,0,0,1,22.86,36.63Z"/><path class="d78a65ea-6a41-4b51-b1af-324d4561118c" d="M33.29,15.11A10.42,10.42,0,1,1,22.67,4.69,10.41,10.41,0,0,1,33.29,15.11Z"/></svg>