<svg id="44e5a4c0-f074-4239-875a-93b39ab8a0a1" data-name="Layer 1" xmlns="http://www.w3.org/2000/svg" width="67.71" height="35.18" viewBox="0 0 67.71 35.18"><defs><style>.f2a41566-abc9-4a0c-b2b1-97917d8ebb2b{fill:none;stroke:#9c9d9e;stroke-miterlimit:10;stroke-width:1.3px}</style></defs><title>icons</title><line class="f2a41566-abc9-4a0c-b2b1-97917d8ebb2b" x1="33.39" y1="3.36" x2="33.39" y2="12.89"/><path class="f2a41566-abc9-4a0c-b2b1-97917d8ebb2b" d="M50.18,12.89,46.05,5.82h0A4.81,4.81,0,0,0,41.8,3.3H24.93a4.82,4.82,0,0,0-4.28,2.64l-4,7"/><line class="f2a41566-abc9-4a0c-b2b1-97917d8ebb2b" x1="28.94" y1="15.61" x2="31.47" y2="15.61"/><line class="f2a41566-abc9-4a0c-b2b1-97917d8ebb2b" x1="45.71" y1="15.61" x2="48.24" y2="15.61"/><circle class="f2a41566-abc9-4a0c-b2b1-97917d8ebb2b" cx="16.58" cy="25.25" r="6.42"/><circle class="f2a41566-abc9-4a0c-b2b1-97917d8ebb2b" cx="16.58" cy="25.25" r="3.18"/><circle class="f2a41566-abc9-4a0c-b2b1-97917d8ebb2b" cx="50.19" cy="25.25" r="6.42"/><circle class="f2a41566-abc9-4a0c-b2b1-97917d8ebb2b" cx="50.19" cy="25.25" r="3.18"/><path class="f2a41566-abc9-4a0c-b2b1-97917d8ebb2b" d="M5.5,14.81a2.25,2.25,0,0,1-1.43,4,2.29,2.29,0,0,1-.87-.18"/><line class="f2a41566-abc9-4a0c-b2b1-97917d8ebb2b" x1="23.15" y1="25.24" x2="43.75" y2="25.24"/><path class="f2a41566-abc9-4a0c-b2b1-97917d8ebb2b" d="M56.78,25.24h7V20.42h0a7.57,7.57,0,0,0-7.57-7.54H10.54A7.57,7.57,0,0,0,3,20.45v4.79h7.17"/></svg>